<svg width="32" height="32" viewBox="0 0 32 32" fill="none" xmlns="http://www.w3.org/2000/svg"><path d="M31.521 19.87c-2.137 8.572-10.82 13.788-19.393 11.651C3.558 29.384-1.659 20.702.479 12.131 2.616 3.56 11.298-1.659 19.87.48c8.573 2.137 13.79 10.82 11.652 19.392z" fill="#375BD2"/><path d="M16.003 9.853l5.387 3.063v6.149l-5.373 3.082-5.387-3.058V12.94l5.373-3.087zm0-4.52l-1.977 1.135-5.382 3.087-1.977 1.135v10.664l1.977 1.125 5.386 3.063 1.977 1.125 1.977-1.135 5.372-3.087 1.977-1.13v-10.67l-1.976-1.124-5.387-3.063-1.977-1.125h.01z" fill="#fff"/></svg>