<svg width="24" height="24" fill="none" xmlns="http://www.w3.org/2000/svg"><circle cx="12" cy="12" r="12" fill="#D1E634"/><path fill-rule="evenodd" clip-rule="evenodd" d="M14.2 8.6a3.1 3.1 0 000 6.2h3.1a3.1 3.1 0 000-6.2h-3.1zm0 1.8a1.3 1.3 0 000 2.6h3a1.3 1.3 0 000-2.6h-3z" fill="#39484C"/><path d="M21.4 15.6a1.1 1.1 0 11-2.2 0 1.1 1.1 0 012.2 0zM10.4 13.7c-.4 1.9-2 3-3.8 3-2.2 0-4-1.4-4-4.1 0-2.8 1.8-4.2 4-4.2 1.8 0 3.4 1.2 3.8 3h-2c-.4-.7-1-1.1-1.8-1.1-1.1 0-2 .8-2 2.3 0 1.4.9 2.2 2 2.2.7 0 1.4-.4 1.7-1.1h2.1z" fill="#39484C"/></svg>